HIERARCHY
ROOT Hips
{
	OFFSET 0.000000 0.000000 0.000000
	CHANNELS 6 Xposition Yposition Zposition Zrotation Yrotation Xrotation 
	JOINT LHipJoint
	{
		OFFSET 0.000000 0.000000 0.000000
		CHANNELS 3 Zrotation Yrotation Xrotation
		JOINT LeftUpLeg
		{
			OFFSET 1.363060 -1.794630 0.839290
			CHANNELS 3 Zrotation Yrotation Xrotation
			JOINT LeftLeg
			{
				OFFSET 2.448110 -6.726130 0.000000
				CHANNELS 3 Zrotation Yrotation Xrotation
				JOINT LeftFoot
				{
					OFFSET 2.562200 -7.039590 0.000000
					CHANNELS 3 Zrotation Yrotation Xrotation
					JOINT LeftToeBase
					{
						OFFSET 0.157640 -0.433110 2.322550
						CHANNELS 3 Zrotation Yrotation Xrotation
						End Site
						{
							OFFSET 0.000000 0.000000 0.000000
						}
					}
				}
			}
		}
	}
	JOINT RHipJoint
	{
		OFFSET 0.000000 0.000000 0.000000
		CHANNELS 3 Zrotation Yrotation Xrotation
		JOINT RightUpLeg
		{
			OFFSET -1.305520 -1.794630 0.839290
			CHANNELS 3 Zrotation Yrotation Xrotation
			JOINT RightLeg
			{
				OFFSET -2.542530 -6.985550 0.000000
				CHANNELS 3 Zrotation Yrotation Xrotation
				JOINT RightFoot
				{
					OFFSET -2.568260 -7.056230 0.000000
					CHANNELS 3 Zrotation Yrotation Xrotation
					JOINT RightToeBase
					{
						OFFSET -0.164730 -0.452590 2.363150
						CHANNELS 3 Zrotation Yrotation Xrotation
						End Site
						{
							OFFSET 0.000000 0.000000 0.000000
						}
					}
				}
			}
		}
	}
	JOINT LowerBack
	{
		OFFSET 0.000000 0.000000 0.000000
		CHANNELS 3 Zrotation Yrotation Xrotation
		JOINT Spine
		{
			OFFSET 0.028270 2.035590 -0.193380
			CHANNELS 3 Zrotation Yrotation Xrotation
			JOINT Spine1
			{
				OFFSET 0.056720 2.048850 -0.042750
				CHANNELS 3 Zrotation Yrotation Xrotation
				JOINT Neck
				{
					OFFSET 0.000000 0.000000 0.000000
					CHANNELS 3 Zrotation Yrotation Xrotation
					JOINT Neck1
					{
						OFFSET -0.054170 1.746240 0.172020
						CHANNELS 3 Zrotation Yrotation Xrotation
						JOINT Head
						{
							OFFSET 0.104070 1.761360 -0.123970
							CHANNELS 3 Zrotation Yrotation Xrotation
							End Site
							{
								OFFSET 0.000000 0.000000 0.000000
							}
						}
					}
				}
				JOINT LeftShoulder
				{
					OFFSET 0.000000 0.000000 0.000000
					CHANNELS 3 Zrotation Yrotation Xrotation
					JOINT LeftArm
					{
						OFFSET 3.362410 1.200890 -0.311210
						CHANNELS 3 Zrotation Yrotation Xrotation
						JOINT LeftForeArm
						{
							OFFSET 4.983000 -0.000000 -0.000000
							CHANNELS 3 Zrotation Yrotation Xrotation
							JOINT LeftHand
							{
								OFFSET 3.483560 -0.000000 -0.000000
								CHANNELS 3 Zrotation Yrotation Xrotation
								JOINT LeftFingerBase
								{
									OFFSET 0.000000 0.000000 0.000000
									CHANNELS 3 Zrotation Yrotation Xrotation
									JOINT LeftHandIndex1
									{
										OFFSET 0.715260 -0.000000 -0.000000
										CHANNELS 3 Zrotation Yrotation Xrotation
										End Site
										{
											OFFSET 0.000000 0.000000 0.000000
										}
									}
								}
								JOINT LThumb
								{
									OFFSET 0.000000 0.000000 0.000000
									CHANNELS 3 Zrotation Yrotation Xrotation
									End Site
									{
										OFFSET 0.000000 0.000000 0.000000
									}
								}
							}
						}
					}
				}
				JOINT RightShoulder
				{
					OFFSET 0.000000 0.000000 0.000000
					CHANNELS 3 Zrotation Yrotation Xrotation
					JOINT RightArm
					{
						OFFSET -3.136600 1.374050 -0.404650
						CHANNELS 3 Zrotation Yrotation Xrotation
						JOINT RightForeArm
						{
							OFFSET -5.241900 -0.000000 -0.000000
							CHANNELS 3 Zrotation Yrotation Xrotation
							JOINT RightHand
							{
								OFFSET -3.444170 -0.000000 -0.000000
								CHANNELS 3 Zrotation Yrotation Xrotation
								JOINT RightFingerBase
								{
									OFFSET 0.000000 0.000000 0.000000
									CHANNELS 3 Zrotation Yrotation Xrotation
									JOINT RightHandIndex1
									{
										OFFSET -0.622530 -0.000000 -0.000000
										CHANNELS 3 Zrotation Yrotation Xrotation
										End Site
										{
											OFFSET 0.000000 0.000000 0.000000
										}
									}
								}
								JOINT RThumb
								{
									OFFSET 0.000000 0.000000 0.000000
									CHANNELS 3 Zrotation Yrotation Xrotation
									End Site
									{
										OFFSET 0.000000 0.000000 0.000000
									}
								}
							}
						}
					}
				}
			}
		}
	}
}
MOTION
Frames: 9
Frame Time: 0.008333
0.202236 17.445301 -2.708403 2.013440 -7.139396 -4.904114 -6.896067 4.068025 5.763562 4.731888 -9.098014 -13.990091 4.446704 14.535555 41.791607 4.703233 -2.726089 14.248542 2.227700 -9.325000 -26.817500 4.396203 -5.289345 4.691829 -5.983545 26.846400 -6.024971 -3.946729 -13.181967 37.763618 3.009653 -11.094028 7.056108 -1.999200 8.864500 -25.372400 -0.981561 -0.608955 9.706545 0.504512 -0.938498 -2.254554 -0.336202 -0.369578 -3.667694 -5.680232 -0.563127 -9.007658 6.281835 -0.776881 8.693191 3.141600 -0.168300 3.217600 1.242910 -8.545336 -0.574142 13.325249 -19.881873 -45.171799 84.346369 -65.284712 -77.799616 0.059875 -6.405110 -20.628897 34.428298 3.705160 7.901600 -7.125000 0.000000 0.000000 9.083800 42.990700 -0.454400 -3.683113 8.940710 1.641471 -19.375653 11.603074 -49.337449 -78.230723 65.557796 -78.018692 1.918607 5.526836 10.922124 -43.239070 14.688788 -6.462200 7.125000 0.000000 0.000000 -12.827800 -20.853700 -7.610800 
0.238764 17.519849 -2.683376 2.263041 -7.331244 -4.764891 -7.080787 4.151106 5.949343 4.423732 -8.835754 -13.717325 4.067542 14.233511 40.671908 4.439630 -1.993848 14.633312 2.195900 -9.262700 -26.620500 4.363094 -5.363341 4.789043 -6.518423 26.768914 -5.930720 -3.644391 -12.959904 36.603049 2.904265 -11.144489 8.411412 -1.942200 8.744600 -24.999500 -1.088541 -0.524241 9.099241 0.516407 -0.839691 -2.304837 -0.146807 -0.327786 -3.503618 -6.118308 -0.343831 -9.882987 6.601129 -0.452021 9.740273 3.402600 -0.010400 3.878000 0.974189 -8.546473 -0.828678 11.880328 -19.978395 -42.323148 84.635436 -65.190358 -77.880049 0.034949 -6.340577 -20.267954 34.520432 3.786995 7.935200 -7.125000 0.000000 0.000000 9.131300 43.030000 -0.447900 -3.476021 8.909774 1.884216 -19.061983 11.954449 -47.482510 -76.986924 64.566656 -77.116077 2.070809 5.583335 11.110851 -42.767698 14.437366 -6.094800 7.125000 0.000000 0.000000 -12.646200 -21.311500 -7.363100 
0.276783 17.619422 -2.657817 2.375148 -7.607386 -4.482265 -7.257906 4.221455 6.127150 4.195366 -8.414874 -13.579937 3.697856 13.914581 39.462831 3.982394 -0.855542 15.219364 2.199800 -9.270500 -26.645200 4.384735 -5.433043 4.853397 -6.957409 26.745621 -5.898021 -3.351357 -12.692364 35.327635 3.089419 -11.734921 10.010947 -2.006600 8.879800 -25.420100 -0.968731 -0.433218 8.355221 0.522421 -0.710555 -2.360597 -0.136486 -0.262608 -3.368385 -6.081177 -0.214011 -10.234437 6.538744 -0.265749 10.277787 3.378800 0.072200 4.179100 0.692064 -8.496727 -0.997791 10.401833 -19.959048 -39.248236 84.379047 -64.894057 -77.691406 0.018866 -6.328132 -20.136426 34.249831 3.654110 7.740300 -7.125000 0.000000 0.000000 8.865300 42.798300 -0.485800 -3.181599 8.863271 2.132038 -18.529869 12.314095 -45.453652 -75.564398 63.462030 -76.088611 2.239150 5.655055 11.244835 -42.150675 14.097918 -5.625300 7.125000 0.000000 0.000000 -12.389400 -21.900700 -7.036200 
0.316293 17.745833 -2.629596 2.234352 -8.041787 -4.092755 -7.394816 4.299918 6.316955 4.190851 -7.845661 -13.549379 3.323076 13.580023 38.164331 3.626395 0.134014 16.238702 2.121700 -9.115100 -26.156100 4.488903 -5.501271 4.848404 -7.170861 26.951271 -5.871001 -3.052877 -12.383650 34.023367 3.276526 -12.367096 11.774861 -2.103700 9.078800 -26.042100 -0.529256 -0.313387 7.522428 0.548955 -0.505508 -2.408149 -0.217639 -0.155905 -3.160611 -5.955733 -0.103166 -10.490487 6.409911 -0.108256 10.607801 3.308900 0.141500 4.351100 0.400002 -8.403130 -1.101209 8.903136 -19.829696 -36.081926 83.654763 -64.416890 -77.225796 -0.017820 -6.349817 -20.060330 34.053868 3.396665 7.511400 -7.125000 0.000000 0.000000 8.703400 42.467100 -0.548400 -2.845531 8.780472 2.392455 -17.917367 12.682183 -43.422618 -73.933305 62.207085 -74.852488 2.419096 5.711718 11.478027 -41.620409 13.765866 -5.196600 7.125000 0.000000 0.000000 -12.188200 -22.454500 -6.758900 
0.351223 17.893543 -2.602972 1.866231 -8.556180 -3.653318 -7.491082 4.399439 6.516490 4.423128 -7.230455 -13.596904 2.952693 13.229284 36.771167 3.313807 1.118280 17.734463 2.020500 -8.908600 -25.509800 4.673866 -5.587864 4.803145 -7.168060 27.399618 -5.776483 -2.742188 -12.039470 32.700121 3.406658 -12.957479 13.731847 -2.077200 9.025000 -25.873600 0.113540 -0.185040 6.773548 0.603476 -0.268122 -2.481147 -0.311496 -0.028211 -3.028316 -5.837089 -0.016294 -10.845981 6.300574 0.021487 10.964566 3.251900 0.197500 4.571700 0.074577 -8.284152 -1.189019 7.245122 -19.548671 -32.806602 82.671615 -63.827827 -76.623110 -0.059899 -6.397685 -19.921820 33.887591 3.231266 7.380700 -7.125000 0.000000 0.000000 8.585300 42.286400 -0.579500 -2.460520 8.681687 2.658995 -17.195747 13.015007 -41.188804 -72.094903 60.773175 -73.341111 2.591015 5.745721 11.627813 -41.312742 13.373784 -4.768500 7.125000 0.000000 0.000000 -12.154300 -23.045400 -6.570700 
0.385302 18.063829 -2.576242 1.583224 -8.960800 -3.236413 -7.621318 4.510717 6.721054 4.604856 -6.746089 -13.602487 2.588369 12.858522 35.336098 2.924685 2.290412 19.386244 2.009600 -8.886000 -25.439400 4.864339 -5.701511 4.775857 -7.232880 27.902280 -5.622948 -2.459598 -11.710328 31.374512 3.609782 -13.756010 15.726715 -2.087000 9.044900 -25.935900 0.671146 -0.063911 6.129810 0.648008 -0.059095 -2.577621 -0.430630 0.089410 -2.972814 -5.607535 0.049710 -11.307594 6.122425 0.123101 11.351842 3.131200 0.240900 4.845600 -0.284212 -8.134669 -1.200213 5.556104 -19.208869 -29.437305 81.219216 -63.012734 -75.723368 -0.075309 -6.498715 -19.811553 33.481780 3.433031 7.475700 -7.125000 0.000000 0.000000 8.264200 42.569800 -0.499300 -2.026793 8.566736 2.865324 -16.273307 13.201929 -38.747872 -70.227689 59.313861 -71.733601 2.746096 5.767057 11.538699 -41.005264 13.053867 -4.437000 7.125000 0.000000 0.000000 -12.107200 -23.502000 -6.413900 
0.420020 18.244020 -2.553025 1.484462 -9.299693 -2.807856 -7.823796 4.613973 6.920339 4.675179 -6.439969 -13.557586 2.224012 12.461307 33.845783 2.456571 3.661764 21.133769 2.063900 -8.997900 -25.788900 5.044414 -5.828842 4.735438 -7.472959 28.416938 -5.514380 -2.240928 -11.409286 30.022106 4.026379 -15.036583 17.720220 -2.214400 9.299200 -26.735700 1.005238 0.052593 5.436871 0.692035 0.109498 -2.653311 -0.446862 0.186770 -2.806642 -5.434618 0.202279 -11.749181 5.979245 0.346032 11.547732 3.033800 0.348300 5.000100 -0.663321 -7.957561 -1.121809 3.858197 -18.852105 -26.186363 79.323413 -61.986693 -74.530449 -0.025209 -6.660934 -20.044803 32.719638 4.178877 7.865300 -7.125000 0.000000 0.000000 7.622300 43.501200 -0.283700 -1.587242 8.413833 3.036646 -15.291248 13.354547 -36.354488 -68.370881 57.865824 -70.031166 2.879120 5.766589 11.333584 -40.655238 12.739439 -4.146600 7.125000 0.000000 0.000000 -12.012100 -23.896200 -6.249500 
0.449093 18.430921 -2.537584 1.442591 -9.635380 -2.368929 -8.063218 4.719150 7.116972 4.781260 -6.283444 -13.493813 1.849451 12.027738 32.235343 2.019352 5.090725 23.147506 2.162500 -9.196700 -26.412600 5.252876 -5.970305 4.661091 -7.768501 29.042304 -5.426468 -2.044938 -11.111605 28.637105 4.378508 -16.370428 19.944424 -2.231500 9.332500 -26.841000 1.219935 0.158104 4.751638 0.737416 0.244231 -2.707845 -0.408322 0.267876 -2.575218 -5.305586 0.381685 -12.107793 5.895864 0.601171 11.507460 2.967600 0.477600 5.009800 -1.059330 -7.772884 -0.980772 2.123281 -18.531213 -23.179771 77.213521 -60.833456 -73.129510 0.067703 -6.825795 -20.201213 31.658789 5.303628 8.367700 -7.125000 0.000000 0.000000 6.627600 44.818200 -0.029900 -1.133982 8.246767 3.183210 -14.203027 13.543990 -34.103443 -66.481109 56.407247 -68.207420 2.992100 5.750646 11.093256 -40.146292 12.307621 -3.774500 7.125000 0.000000 0.000000 -11.798000 -24.393100 -5.994700 
0.474652 18.633156 -2.522142 1.505181 -9.855331 -2.034171 -8.350065 4.855157 7.331149 4.861261 -6.321489 -13.318879 1.474328 11.568861 30.523408 1.551087 6.697300 25.234026 2.332600 -9.527000 -27.458300 5.463084 -6.153996 4.619146 -8.128530 29.704356 -5.247065 -1.855159 -10.838543 27.235218 4.585574 -17.663386 22.401560 -2.032100 8.932700 -25.584900 1.287867 0.247525 4.192301 0.768341 0.342648 -2.766465 -0.363401 0.329906 -2.363141 -5.162986 0.466322 -12.701595 5.812695 0.733593 11.662597 2.891100 0.546600 5.186500 -1.480302 -7.578708 -0.792306 0.318127 -18.235470 -20.171258 74.911295 -59.517063 -71.416363 0.112603 -6.933043 -20.089721 30.594929 6.089940 8.559500 -7.125000 0.000000 0.000000 5.581100 45.645000 0.089100 -0.652211 8.075894 3.277693 -12.954278 13.680156 -31.867288 -64.580587 54.940775 -66.265287 3.079566 5.708752 10.756910 -39.674858 11.803351 -3.385000 7.125000 0.000000 0.000000 -11.602900 -24.925300 -5.745100 
